<svg xmlns="http://www.w3.org/2000/svg" xmlns:xlink="http://www.w3.org/1999/xlink" width="500" zoomAndPan="magnify" viewBox="0 0 375 225" height="300" preserveAspectRatio="xMidYMid meet" version="1.0"><defs><clipPath id="5fb72a98b7"><path d="M 38.476562 0 L 337 0 L 337 218.230469 L 38.476562 218.230469 Z M 38.476562 0 " clip-rule="nonzero"/></clipPath><clipPath id="9070d82271"><path d="M 137.878906 211.46875 C 153.160156 215.550781 170.53125 218.230469 187.582031 218.230469 C 204.628906 218.230469 221.035156 215.933594 236.15625 211.851562 C 236.476562 211.722656 236.800781 211.722656 237.121094 211.597656 C 293.898438 195.269531 335.71875 152.152344 336.523438 102.265625 L 336.523438 -47.558594 L 38.476562 -47.558594 L 38.476562 102.152344 C 39.28125 152.410156 80.457031 195.523438 137.878906 211.46875 Z M 137.878906 211.46875 " clip-rule="nonzero"/></clipPath></defs><g clip-path="url(#5fb72a98b7)"><g clip-path="url(#9070d82271)"><path fill="#f2f4ea" d="M 38.476562 -47.558594 L 336.449219 -47.558594 L 336.449219 218.230469 L 38.476562 218.230469 Z M 38.476562 -47.558594 " fill-opacity="1" fill-rule="nonzero"/></g></g></svg>